<svg version="1.0" xmlns="http://www.w3.org/2000/svg"
 width="2050.000000pt" height="1855.000000pt" viewBox="0 0 2050.000000 1855.000000"
 preserveAspectRatio="xMidYMid meet">

<g transform="translate(0.000000,1855.000000) scale(0.100000,-0.100000)"
fill="#000000" stroke="none">
<path d="M10200 17593 c-316 -168 -600 -359 -875 -589 -1056 -881 -1899 -2285
-2339 -3894 -31 -113 -55 -210 -54 -217 2 -7 49 -54 105 -105 57 -51 161 -148
232 -216 l129 -123 22 98 c267 1207 797 2360 1477 3216 395 496 863 919 1325
1196 l86 52 111 -67 c747 -456 1440 -1228 1959 -2187 350 -646 641 -1422 802
-2142 18 -77 34 -146 36 -154 3 -9 49 30 132 110 70 69 176 170 235 224 l108
100 -41 149 c-350 1289 -925 2416 -1684 3296 -132 153 -431 455 -578 582 -222
193 -466 374 -674 501 -89 54 -399 227 -406 227 -2 -1 -50 -26 -108 -57z"/>
<path d="M10203 16276 c-256 -193 -550 -473 -760 -722 -657 -781 -1147 -1786
-1437 -2949 -45 -180 -119 -535 -131 -630 l-7 -51 128 -160 c71 -89 178 -229
239 -313 l110 -152 27 210 c148 1147 501 2184 1037 3051 222 357 534 743 803
991 l98 91 161 -159 c255 -251 443 -480 654 -798 576 -868 971 -1987 1115
-3150 11 -93 23 -185 26 -203 l5 -34 38 54 c81 116 190 260 300 398 64 79 122
153 129 162 11 15 9 41 -13 160 -315 1729 -1137 3269 -2195 4112 -124 99 -214
166 -223 166 -4 0 -50 -33 -104 -74z"/>
<path d="M10249 14783 c-628 -764 -1078 -1826 -1278 -3018 -29 -170 -63 -435
-75 -590 -4 -38 -8 -95 -11 -125 -6 -77 -13 -217 -21 -412 l-6 -168 124 -247
c377 -748 618 -1461 763 -2258 48 -264 91 -634 101 -880 4 -77 12 -152 19
-166 31 -65 219 -315 366 -484 l74 -86 54 58 c73 78 234 280 326 410 69 96 75
110 76 157 1 28 3 62 4 76 1 14 5 77 9 140 22 372 107 899 212 1314 152 596
353 1131 642 1710 l125 249 -6 256 c-4 141 -9 267 -11 281 -2 14 -7 66 -10
115 -68 958 -377 2048 -803 2832 -175 322 -418 684 -575 856 l-43 47 -56 -67z
m99 -960 c420 -708 725 -1718 813 -2693 34 -380 33 -958 -1 -1300 -81 -785
-290 -1526 -605 -2137 -87 -169 -235 -423 -246 -423 -8 0 -72 103 -151 240
-393 689 -657 1609 -713 2490 -4 52 -8 113 -11 135 -6 62 -6 611 1 711 14 204
36 454 46 529 114 825 305 1484 617 2125 55 115 202 389 208 390 1 0 20 -30
42 -67z"/>
<path d="M10252 12363 c-119 -414 -199 -821 -232 -1183 -6 -69 -13 -136 -15
-150 -10 -56 -20 -348 -20 -545 0 -289 9 -456 41 -736 23 -213 85 -539 144
-769 53 -207 132 -452 141 -443 4 5 28 75 54 157 134 434 209 824 250 1306 19
212 13 898 -9 1105 -40 386 -93 690 -176 1020 -43 172 -109 396 -120 408 -4 4
-30 -72 -58 -170z"/>
<path d="M2853 13999 c-236 -435 -405 -972 -487 -1549 -43 -298 -50 -417 -50
-855 -1 -408 7 -566 39 -815 2 -19 7 -57 10 -85 57 -470 184 -1023 354 -1535
741 -2229 2357 -4027 4266 -4745 521 -196 1130 -315 1612 -315 l102 0 41 73
c48 85 175 343 184 374 6 18 -5 34 -66 91 -40 39 -125 127 -188 196 -63 69
-117 126 -120 126 -3 0 -20 -40 -39 -88 -19 -48 -52 -124 -73 -169 -45 -98
-23 -93 -266 -63 -890 110 -1829 541 -2635 1208 -344 284 -735 683 -1023 1042
-936 1167 -1559 2716 -1674 4165 -5 72 -12 159 -15 195 -8 88 -7 575 0 691 38
592 147 1080 347 1553 l42 98 71 -6 c269 -23 679 -121 993 -237 802 -295 1571
-801 2305 -1518 70 -68 127 -118 127 -110 1 26 30 224 61 412 l32 188 -29 30
c-16 17 -83 79 -149 138 -1106 988 -2402 1582 -3530 1618 l-181 6 -61 -114z"/>
<path d="M17290 14093 c-1038 -102 -2208 -656 -3190 -1509 -91 -79 -193 -169
-227 -201 l-62 -58 24 -135 c14 -74 34 -202 45 -285 12 -82 23 -161 26 -174 5
-22 18 -11 152 121 480 474 917 804 1523 1151 71 40 333 170 444 220 327 146
738 274 1045 326 179 30 320 45 330 35 19 -20 106 -239 166 -419 96 -294 165
-616 198 -935 8 -80 18 -170 21 -200 10 -92 14 -668 5 -785 -5 -60 -11 -148
-15 -195 -43 -578 -203 -1299 -426 -1918 -558 -1545 -1554 -2852 -2804 -3677
-724 -478 -1524 -774 -2251 -831 l-80 -7 -46 104 c-26 57 -59 134 -73 172
l-27 67 -193 -197 -192 -198 19 -45 c32 -75 136 -281 176 -350 l38 -65 175 2
c96 1 226 7 289 13 1997 199 3951 1713 5053 3917 455 908 759 1954 842 2893 3
36 8 79 10 95 18 128 26 693 13 925 -7 117 -23 301 -33 380 -77 615 -222 1115
-463 1593 l-94 188 -142 -2 c-77 -2 -202 -9 -276 -16z"/>
<path d="M3530 13037 c0 -3 -21 -76 -46 -163 -384 -1337 -101 -3119 739 -4644
273 -495 580 -927 958 -1345 688 -760 1521 -1320 2369 -1593 135 -43 389 -108
501 -126 l37 -6 41 125 c23 69 41 133 41 141 0 8 -44 78 -98 155 -54 77 -140
208 -192 291 l-95 151 -23 -126 c-17 -92 -28 -127 -38 -127 -20 0 -247 83
-371 136 -895 382 -1750 1127 -2383 2074 -568 850 -964 1883 -1094 2855 -9 66
-19 138 -22 160 -34 242 -39 808 -10 1065 26 235 47 350 63 350 26 0 317 -122
458 -193 560 -279 1070 -658 1560 -1158 243 -248 484 -532 648 -762 26 -37 51
-67 55 -67 4 0 7 129 7 288 0 158 2 337 5 399 l5 111 -90 104 c-134 153 -400
422 -573 579 -622 563 -1305 980 -1972 1203 -179 59 -480 136 -480 123z"/>
<path d="M16905 13001 c-986 -248 -1995 -912 -2849 -1875 l-88 -99 6 -81 c4
-45 7 -227 6 -405 0 -179 4 -321 8 -315 5 5 60 77 122 159 689 911 1562 1615
2445 1969 88 35 161 63 163 61 12 -10 49 -287 67 -500 7 -88 7 -557 -1 -656
-36 -470 -110 -890 -236 -1324 -468 -1625 -1485 -3003 -2783 -3775 -230 -136
-557 -287 -794 -365 -67 -22 -85 -25 -91 -14 -5 7 -16 56 -25 108 -10 53 -20
104 -24 113 -4 13 -31 -24 -99 -135 -51 -84 -138 -216 -192 -294 l-100 -141
40 -124 c22 -68 44 -129 48 -136 7 -10 38 -7 153 18 1049 222 2109 912 2950
1920 216 258 461 604 618 870 41 69 87 147 103 174 17 27 72 131 123 230 468
905 746 1870 815 2834 13 177 4 733 -14 900 -29 272 -77 524 -143 752 -45 157
-50 170 -65 169 -7 0 -80 -17 -163 -38z"/>
<path d="M7280 11810 c0 -5 -9 -78 -19 -162 -11 -84 -27 -234 -36 -334 l-17
-181 94 -124 c318 -419 562 -809 782 -1249 227 -456 363 -800 450 -1140 30
-118 76 -282 102 -365 59 -189 66 -219 109 -450 71 -379 99 -680 99 -1075 1
-420 -15 -615 -81 -982 l-26 -147 99 -117 c130 -154 293 -334 303 -334 27 0
143 550 176 835 3 22 9 74 15 117 31 244 34 892 4 1173 -67 639 -171 1121
-365 1691 -334 982 -874 1923 -1568 2732 -98 115 -121 136 -121 112z"/>
<path d="M13199 11678 c-364 -426 -691 -895 -969 -1393 -78 -141 -262 -508
-324 -647 -277 -628 -488 -1345 -576 -1958 -11 -80 -23 -160 -25 -179 -7 -48
-33 -339 -40 -461 -8 -128 -8 -559 0 -667 3 -43 8 -112 11 -153 3 -41 9 -109
14 -150 5 -41 12 -100 15 -130 22 -202 132 -727 164 -788 13 -23 415 439 406
467 -22 76 -81 485 -90 631 -4 58 -8 121 -11 140 -6 52 -5 531 1 635 25 413
105 913 184 1155 46 143 99 331 141 505 88 370 398 1060 707 1580 110 184 304
474 429 641 149 198 175 235 170 243 -2 3 -7 51 -10 106 -6 90 -35 363 -52
490 -4 28 -10 56 -14 64 -5 10 -44 -29 -131 -131z"/>
<path d="M4325 11508 c21 -850 259 -1761 676 -2585 293 -578 643 -1071 1069
-1507 379 -387 752 -673 1173 -901 l87 -47 2 84 c1 45 1 151 -1 233 l-3 150
-73 185 c-225 568 -399 1202 -499 1815 -22 132 -30 160 -66 230 -535 1020
-1349 1903 -2246 2438 -62 37 -114 67 -117 67 -3 0 -4 -73 -2 -162z m860
-1140 c276 -280 447 -484 653 -781 369 -529 640 -1090 807 -1673 41 -142 106
-426 100 -433 -13 -13 -392 365 -541 539 -559 655 -994 1503 -1208 2355 -64
251 -59 228 -39 216 10 -5 113 -105 228 -223z"/>
<path d="M16210 11627 c-799 -458 -1607 -1286 -2132 -2187 -186 -319 -185
-317 -223 -538 -112 -648 -272 -1224 -493 -1777 l-76 -190 -3 -206 c-1 -113 1
-217 5 -231 l7 -26 135 76 c1312 732 2352 2215 2726 3886 45 202 78 392 98
566 8 74 18 155 20 180 7 60 20 490 15 490 -2 0 -38 -19 -79 -43z m-569 -1170
c-215 -898 -640 -1738 -1239 -2447 -102 -121 -416 -441 -491 -499 l-44 -35 7
47 c4 25 27 126 52 223 226 898 683 1730 1357 2473 139 153 380 387 385 373 1
-5 -11 -66 -27 -135z"/>
<path d="M7195 10130 c5 -167 10 -254 20 -365 2 -27 7 -81 10 -120 47 -554
186 -1249 361 -1805 156 -493 421 -1097 652 -1489 78 -131 80 -132 86 -100 11
56 15 716 5 834 -55 665 -200 1278 -453 1918 -157 396 -405 875 -631 1217
l-56 85 6 -175z"/>
<path d="M13362 10208 c-94 -147 -139 -221 -239 -403 -491 -884 -780 -1844
-840 -2785 -8 -128 -8 -629 1 -665 2 -11 5 -44 5 -72 1 -29 5 -53 10 -53 15 0
162 262 286 510 364 729 630 1593 750 2435 8 61 17 124 20 142 8 54 31 268 40
371 15 174 14 167 31 495 3 64 4 117 1 117 -3 0 -32 -42 -65 -92z"/>
<path d="M11477 2600 c-102 -26 -197 -109 -237 -206 -24 -59 -24 -60 -28 -533
-4 -506 0 -566 43 -651 89 -176 350 -234 521 -117 62 43 118 116 138 181 16
52 28 179 19 203 -4 10 -34 13 -113 13 l-108 0 -4 -74 c-4 -83 -23 -120 -73
-145 -36 -17 -96 -16 -133 3 -60 31 -62 47 -62 549 0 422 2 455 19 494 11 23
29 47 41 53 32 17 117 14 147 -5 36 -24 63 -90 63 -157 l0 -58 116 0 116 0 -7
91 c-8 118 -33 185 -96 254 -70 76 -136 106 -241 111 -46 2 -100 -1 -121 -6z"/>
<path d="M1136 2592 c-3 -6 -5 -356 -4 -779 l3 -768 160 -2 c211 -3 293 8 375
49 80 41 132 105 163 203 30 95 32 331 3 414 -18 51 -82 131 -116 144 -13 5
-12 8 3 17 48 30 87 75 107 122 19 45 23 72 24 173 2 184 -35 278 -138 356
-83 63 -124 71 -362 77 -138 3 -214 1 -218 -6z m410 -223 c64 -20 96 -86 96
-194 -1 -163 -53 -215 -214 -215 l-68 0 0 209 0 210 48 3 c57 4 97 0 138 -13z
m31 -635 c50 -36 64 -81 65 -201 0 -127 -12 -179 -49 -215 -40 -38 -74 -48
-159 -48 l-74 0 0 246 0 246 94 -4 c76 -2 100 -7 123 -24z"/>
<path d="M2717 2594 c-8 -8 -8 -1518 0 -1539 5 -13 50 -15 334 -15 l329 1 0
115 0 114 -220 0 -220 0 0 225 0 225 190 0 190 0 0 105 0 105 -190 0 -190 0 0
228 0 227 217 0 218 0 3 108 3 107 -329 0 c-181 0 -332 -3 -335 -6z"/>
<path d="M4420 2596 c0 -2 -74 -335 -165 -741 -91 -406 -168 -755 -171 -776
l-6 -37 110 0 c105 0 111 1 115 21 3 12 18 88 33 170 l28 147 151 -2 150 -3
30 -155 c17 -85 34 -160 38 -166 10 -17 217 -16 217 1 0 8 -20 105 -45 217
-181 805 -295 1319 -295 1323 0 3 -43 5 -95 5 -52 0 -95 -2 -95 -4z m150 -733
c27 -144 50 -264 50 -267 0 -3 -47 -6 -105 -6 -92 0 -105 2 -105 17 0 9 18
109 40 222 59 299 63 317 66 306 2 -5 26 -128 54 -272z"/>
<path d="M5717 2593 c-9 -9 -7 -1117 2 -1224 9 -103 36 -165 101 -230 122
-122 304 -141 452 -47 58 36 99 87 136 165 l27 58 3 590 c2 325 1 614 -3 643
l-6 52 -110 0 -109 0 0 -617 c0 -569 -1 -621 -18 -652 -25 -51 -61 -73 -117
-73 -56 0 -92 22 -117 73 -17 31 -18 83 -18 652 l0 617 -108 0 c-60 0 -112 -3
-115 -7z"/>
<path d="M7185 2548 c-4 -29 -5 -78 -3 -108 l3 -55 128 -3 127 -3 0 -670 0
-670 113 3 112 3 2 665 2 665 126 3 125 3 0 109 0 110 -364 0 -365 0 -6 -52z"/>
<path d="M8580 2586 c0 -7 68 -211 150 -452 l150 -439 0 -328 0 -328 108 3
107 3 6 340 5 340 151 435 150 435 -115 3 c-63 1 -117 1 -119 -2 -3 -3 -44
-141 -92 -307 -49 -166 -90 -298 -93 -293 -3 5 -40 128 -82 274 -43 146 -82
280 -87 298 l-11 32 -114 0 c-90 0 -114 -3 -114 -14z"/>
<path d="M12770 1820 l0 -780 316 1 c174 0 322 3 330 6 11 4 14 30 14 114 l0
109 -220 0 -220 0 0 225 0 225 193 2 192 3 3 103 3 102 -195 0 -196 0 0 225
c0 208 1 225 18 225 9 0 107 1 217 3 l200 2 3 108 3 107 -331 0 -330 0 0 -780z"/>
<path d="M14220 1826 l0 -776 23 -6 c13 -3 62 -4 108 -2 l84 3 5 464 5 464
165 -453 c91 -250 171 -460 179 -468 11 -10 37 -13 110 -10 l96 3 3 725 c2
399 0 749 -3 778 l-6 52 -110 0 -109 0 -2 -464 -3 -464 -166 462 -165 461
-107 3 -107 3 0 -775z"/>
<path d="M15736 2569 c-3 -17 -6 -65 -6 -105 0 -89 -2 -88 154 -82 l106 4 2
-670 3 -671 100 -1 c55 0 106 2 113 4 9 3 12 146 12 671 l0 666 123 0 122 0 3
108 3 107 -364 0 -364 0 -7 -31z"/>
<path d="M17220 1826 c0 -653 2 -775 14 -779 19 -7 622 -8 641 -1 12 5 15 28
15 115 l0 109 -220 0 -220 0 0 225 0 225 190 0 190 0 0 105 0 105 -190 0 -190
0 0 228 0 227 217 0 218 0 3 108 3 107 -336 0 -335 0 0 -774z"/>
<path d="M18680 1822 l0 -780 89 -1 c49 -1 101 1 114 4 l25 7 1 321 c1 176 3
323 6 325 6 6 115 5 121 -1 2 -2 49 -147 103 -321 55 -175 102 -321 106 -324
4 -4 58 -8 121 -9 113 -1 115 -1 108 20 -4 12 -57 172 -119 355 l-113 332 44
32 c52 37 87 86 116 159 25 65 36 253 19 342 -26 141 -103 243 -217 287 -54
22 -78 24 -291 28 l-233 4 0 -780z m449 539 c60 -30 76 -76 76 -216 0 -102 -3
-126 -21 -160 -31 -60 -65 -75 -172 -77 -50 -1 -93 0 -96 3 -4 3 -10 401 -7
459 1 23 172 16 220 -9z"/>
</g>
</svg>
